<svg xmlns="http://www.w3.org/2000/svg" viewBox="0 0 496 496"><g fill="#08446D"><path d="M420 496H12V386.4L72 328h348M172 0h56v48h-56z"/></g><path fill="#00233F" d="M172 0h56v48"/><path fill="#08446D" d="M124 16h152v160H124z"/><g fill="#00233F"><path d="M124 16h152v160"/><path d="M92 72h216v424H92z"/></g><path fill="#22EFAB" d="M180 112h40v40h-40z"/><path fill="#0DD396" d="M220 112v40h-40"/><path fill="#22EFAB" d="M180 168h40v40h-40z"/><path fill="#0DD396" d="M220 168v40h-40"/><path fill="#22EFAB" d="M180 224h40v40h-40z"/><path fill="#0DD396" d="M220 224v40h-40"/><path fill="#22EFAB" d="M180 280h40v40h-40z"/><path fill="#0DD396" d="M220 280v40h-40"/><path fill="#22EFAB" d="M180 336h40v40h-40z"/><path fill="#0DD396" d="M220 336v40h-40"/><path fill="#22EFAB" d="M124 168h40v40h-40z"/><path fill="#0DD396" d="M164 168v40h-40"/><path fill="#22EFAB" d="M124 224h40v40h-40z"/><path fill="#0DD396" d="M164 224v40h-40"/><path fill="#22EFAB" d="M124 280h40v40h-40z"/><path fill="#0DD396" d="M164 280v40h-40"/><path fill="#22EFAB" d="M124 336h40v40h-40z"/><path fill="#0DD396" d="M164 336v40h-40"/><path fill="#22EFAB" d="M124 112h40v40h-40z"/><path fill="#0DD396" d="M164 112v40h-40"/><path fill="#22EFAB" d="M236 112h40v40h-40z"/><path fill="#0DD396" d="M276 112v40h-40"/><path fill="#22EFAB" d="M236 168h40v40h-40z"/><path fill="#0DD396" d="M276 168v40h-40"/><path fill="#22EFAB" d="M236 224h40v40h-40z"/><path fill="#0DD396" d="M276 224v40h-40"/><path fill="#22EFAB" d="M236 280h40v40h-40z"/><path fill="#0DD396" d="M276 280v40h-40"/><path fill="#22EFAB" d="M236 336h40v40h-40z"/><path fill="#0DD396" d="M276 336v40h-40"/><path d="M228 488v-63.2c0-5.6-5.6-8.8-11.2-8.8h-34.4c-5.6 0-10.4 4-10.4 8.8V488h56z" fill="#C6640C"/><g fill="#08446D"><path d="M332 200h152v296H332z"/><path d="M356 152h104v112H356z"/><path d="M380 96h56v104h-56z"/><path d="M376 205.6l32-195.2 32 195.2-32 32"/></g><g fill="#5A8CA8"><path d="M364 232h8v232h-8zM404 232h8v232h-8zM436 232h8v232h-8z"/></g></svg>