<svg xmlns="http://www.w3.org/2000/svg" viewBox="0 0 410.006 410.006"><path d="M381.31 175.02l-19.313-13.367-17.71-77.204c-4.25-18.526-20.734-31.658-39.74-31.658H105.46c-19.006 0-35.49 13.132-39.74 31.657l-17.71 77.204-19.314 13.367c-12.778 8.844-20.403 23.395-20.403 38.934v69.482c0 12.905 10.462 23.367 23.367 23.367h346.687c12.905 0 23.367-10.462 23.367-23.367v-69.482c0-15.54-7.625-30.09-20.403-38.934z" fill="#008DB3"/><path d="M339.426 161.65H70.586l16.58-72.28c1.97-8.58 9.49-14.58 18.3-14.58h199.08c8.81 0 16.33 6 18.3 14.58l16.58 72.28z" fill="#76CDCE"/><path d="M39.692 219.546c0 17.018 13.796 30.814 30.814 30.814s30.814-13.796 30.814-30.814H39.692zM308.686 219.546c0 17.018 13.796 30.814 30.814 30.814s30.814-13.796 30.814-30.814h-61.628z" fill="#FFF"/><path d="M393.326 273.443H16.68c-9.212 0-16.68 7.468-16.68 16.68s7.468 16.68 16.68 16.68h376.646c9.212 0 16.68-7.468 16.68-16.68s-7.468-16.68-16.68-16.68z" fill="#CCC"/><path d="M30.28 306.803v40.716c0 5.353 4.34 9.693 9.693 9.693H77.12c5.354 0 9.694-4.34 9.694-9.694v-40.717M323.192 306.803v40.716c0 5.353 4.34 9.693 9.694 9.693h37.147c5.354 0 9.694-4.34 9.694-9.694v-40.717" fill="#666"/><path d="M269.462 306.803v4.935c0 11.986-9.716 21.702-21.702 21.702h-70.59c-11.986 0-21.702-9.716-21.702-21.702v-4.935" fill="#4D4D4D"/><path d="M339.426 161.65h-92.56l-86.86-86.86h144.54c8.81 0 16.33 6 18.3 14.58l16.58 72.28z" fill="#96E0DE"/><path fill="#037893" d="M133.506 219.546h151v12h-151zM133.506 239.77h151v12h-151z"/></svg>