<svg xmlns="http://www.w3.org/2000/svg" viewBox="0 0 421.563 421.563"><path d="M353.784 214.203c10.43 3.39 18 13.19 18 24.74 0 11.64-7.68 21.51-18.25 24.82.16-2.75.25-5.52.25-8.31v-39.71-1.54zM67.784 255.453c0 2.79.09 5.56.25 8.31-10.56-3.31-18.25-13.18-18.25-24.82 0-11.55 7.57-21.35 18-24.74v41.25zM306.404 231.743c-11.36-11.36-29.86-11.36-41.22 0-3.13 3.13-3.13 8.19 0 11.32 3.12 3.12 8.19 3.12 11.31 0 5.13-5.13 13.47-5.13 18.6 0 1.56 1.56 3.61 2.34 5.65 2.34 2.05 0 4.1-.78 5.66-2.34 3.13-3.13 3.13-8.19 0-11.32zm-101.29-35.85c39.49 19.01 84.09 28.38 132.67 27.86v31.7c0 70.03-56.97 127-127 127s-127-56.97-127-127v-52.22c30-4.94 51.37-19.71 64.91-44.91 11.52 10.51 30.16 24.93 56.42 37.57zm44.67 133.94c3.12-3.13 3.12-8.19 0-11.32-3.13-3.12-8.19-3.12-11.32 0-15.26 15.27-40.1 15.27-55.36 0-3.13-3.12-8.19-3.12-11.31 0-3.13 3.13-3.13 8.19 0 11.32 10.75 10.75 24.87 16.12 38.99 16.12 14.12 0 28.24-5.37 39-16.12zm-93.39-86.77c3.12-3.13 3.12-8.19 0-11.32-11.37-11.36-29.86-11.36-41.23 0-3.12 3.13-3.12 8.19 0 11.32 3.12 3.12 8.19 3.12 11.31 0 5.13-5.13 13.47-5.13 18.6 0 1.56 1.56 3.61 2.34 5.66 2.34 2.05 0 4.09-.78 5.66-2.34z" fill="#FFEBFA"/><path d="M69.984 280.533c9.1 51.23 45.57 93.1 93.7 109.94-23.15 9.96-66.96 23.16-115.2 8.67 14.27-24.35 16.74-64.83 14.93-120.06 2.12.65 4.32 1.14 6.57 1.45zM358.144 279.083c-1.81 55.24.66 95.72 14.93 120.07-28.25 8.54-58.18 8.68-89.12.41-10.26-2.74-19.11-6.06-26.1-9.08 48.14-16.83 84.63-58.71 93.73-109.95 2.25-.31 4.44-.8 6.56-1.45zM349.594 91.013c14.16 27.58 14.58 57.58 12.26 109.13-2.57-1.07-5.27-1.89-8.07-2.43v-8.13c0-4.42-3.58-8-8-8s-8 3.58-8 8v18.17c-110.2 1.17-169.85-51.91-185.77-68.51-1.88-1.96-4.61-2.83-7.27-2.33-2.65.51-4.88 2.32-5.91 4.82-11.62 28.28-31.93 43.07-63.92 46.56-4.06.44-7.13 3.87-7.13 7.95v1.47c-2.8.54-5.5 1.36-8.08 2.43-2.32-51.54-1.9-81.53 12.28-109.13.86-1.68 1.78-3.37 2.74-5 10.53-18.11 30.69-29.52 52.59-29.77h.11c2.43-.05 4.71-1.2 6.18-3.13 17.27-22.52 43.14-36.01 70.98-37 32.72-1.17 64.94 6.81 93.18 23.07 23.74 13.67 41.18 31.1 51.83 51.83z" fill="#BF5B40"/><path d="M391.824 397.883c1.77 1.96 2.46 4.68 1.84 7.25-.63 2.57-2.48 4.66-4.95 5.6-14.83 5.6-35.34 10.83-60.22 10.83-14.93 0-31.44-1.88-49.24-6.7-23.2-6.27-39.56-15.07-45.14-18.32-7.59 1.25-15.39 1.91-23.33 1.91-7.95 0-15.74-.66-23.34-1.91-5.58 3.25-21.94 12.05-45.13 18.32-13.35 3.61-30.36 6.69-49.51 6.69-18.44 0-38.86-2.85-59.96-10.82-2.47-.94-4.32-3.03-4.94-5.6-.63-2.57.06-5.29 1.83-7.25 18.74-20.75 19.54-73.63 17.32-128.35-8.16-7.66-13.27-18.54-13.27-30.59 0-10.58 3.94-20.26 10.43-27.65-2.73-55.8-4.18-93.11 13.54-127.59.99-1.93 2.04-3.86 3.14-5.74 12.73-21.88 36.39-36.03 62.39-37.58 20.15-24.52 49.35-39.14 80.73-40.26 35.72-1.28 70.89 7.44 101.73 25.19 26.46 15.23 46 34.88 58.08 58.39 17.7 34.46 16.25 71.78 13.53 127.58 6.48 7.39 10.43 17.07 10.43 27.66 0 12.05-5.11 22.93-13.28 30.6-2.21 54.71-1.42 107.59 17.32 128.34zm-20.04-158.94c0-11.55-7.57-21.35-18-24.74v41.25c0 2.79-.09 5.56-.25 8.31 10.57-3.31 18.25-13.18 18.25-24.82zm-9.93-38.8c2.32-51.55 1.9-81.55-12.26-109.13-10.65-20.73-28.09-38.16-51.83-51.83-28.24-16.26-60.46-24.24-93.18-23.07-27.84.99-53.71 14.48-70.98 37-1.47 1.93-3.75 3.08-6.18 3.13h-.11c-21.9.25-42.06 11.66-52.59 29.77-.96 1.63-1.88 3.32-2.74 5-14.18 27.6-14.6 57.59-12.28 109.13 2.58-1.07 5.28-1.89 8.08-2.43v-1.47c0-4.08 3.07-7.51 7.13-7.95 31.99-3.49 52.3-18.28 63.92-46.56 1.03-2.5 3.26-4.31 5.91-4.82 2.66-.5 5.39.37 7.27 2.33 15.92 16.6 75.57 69.68 185.77 68.51v-18.17c0-4.42 3.58-8 8-8s8 3.58 8 8v8.13c2.8.54 5.5 1.36 8.07 2.43zm11.22 199.01c-14.27-24.35-16.74-64.83-14.93-120.07-2.12.65-4.31 1.14-6.56 1.45-9.1 51.24-45.59 93.12-93.73 109.95 6.99 3.02 15.84 6.34 26.1 9.08 30.94 8.27 60.87 8.13 89.12-.41zm-35.29-143.7v-31.7c-48.58.52-93.18-8.85-132.67-27.86-26.26-12.64-44.9-27.06-56.42-37.57-13.54 25.2-34.91 39.97-64.91 44.91v52.22c0 70.03 56.97 127 127 127s127-56.97 127-127zm-174.1 135.02c-48.13-16.84-84.6-58.71-93.7-109.94-2.25-.31-4.45-.8-6.57-1.45 1.81 55.23-.66 95.71-14.93 120.06 48.24 14.49 92.05 1.29 115.2-8.67zm-95.65-126.71c-.16-2.75-.25-5.52-.25-8.31v-41.25c-10.43 3.39-18 13.19-18 24.74 0 11.64 7.69 21.51 18.25 24.82z" fill="#333"/><path d="M306.404 231.743c3.13 3.13 3.13 8.19 0 11.32-1.56 1.56-3.61 2.34-5.66 2.34-2.04 0-4.09-.78-5.65-2.34-5.13-5.13-13.47-5.13-18.6 0-3.12 3.12-8.19 3.12-11.31 0-3.13-3.13-3.13-8.19 0-11.32 11.36-11.36 29.86-11.36 41.22 0zM249.784 318.513c3.12 3.13 3.12 8.19 0 11.32-10.76 10.75-24.88 16.12-39 16.12-14.12 0-28.24-5.37-38.99-16.12-3.13-3.13-3.13-8.19 0-11.32 3.12-3.12 8.18-3.12 11.31 0 15.26 15.27 40.1 15.27 55.36 0 3.13-3.12 8.19-3.12 11.32 0zM156.394 231.743c3.12 3.13 3.12 8.19 0 11.32-1.57 1.56-3.61 2.34-5.66 2.34-2.05 0-4.1-.78-5.66-2.34-5.13-5.13-13.47-5.13-18.6 0-3.12 3.12-8.19 3.12-11.31 0-3.12-3.13-3.12-8.19 0-11.32 11.37-11.36 29.86-11.36 41.23 0z" fill="#333"/></svg>