<svg xmlns="http://www.w3.org/2000/svg" viewBox="0 0 512 512"><path d="M8.44 96.762c-4.66 0-8.44 3.78-8.44 8.44v11.378l16.88 22.506v-33.883c0-4.662-3.78-8.44-8.44-8.44z" fill="#E30026"/><path fill="#FE676C" d="M0 116.58v266.837l56.264 25.135L33.758 116.58"/><path d="M410.89 313.162c-.898 0-1.812-.11-2.723-.336-64.64-16.132-111.25-35.428-146.68-60.727-48.682-34.762-73.365-80.357-73.365-135.52H33.76v269.467l399.637 31.128-22.506-104.013z" fill="#FF3845"/><path d="M414.242 337.463L210.628 229.107l-45.01-157.54C151.95 81.832 143.11 98.172 143.11 116.58c0 37.196 9.002 71.544 26.755 102.086 15.376 26.452 37.402 50.025 65.465 70.063 40.18 28.688 91.636 50.22 161.937 67.766 6.772 1.69 13.092 3.18 19.203 4.623l-2.23-23.657z" fill="#E30026"/><path d="M199.374 116.58V60.316c-12.667 0-24.354 4.188-33.758 11.252v45.012c0 62.85 27.855 114.607 82.792 153.834 37.805 26.993 86.836 47.408 154.308 64.246 3.97.99 7.79 1.912 11.525 2.802l-3.35-35.555c-98.95-24.694-211.516-70.773-211.516-185.327z" fill="#B70E21"/><path d="M410.89 301.908v34.753l56.1 65.525L512 383.417c0-64.184-38.834-65.968-101.11-81.51z" fill="#E7D4A7"/><path d="M469.85 354.96c-8.643-6.41-26.98-10.735-48.21-15.745-3.5-.826-7.078-1.672-10.75-2.556v69.262l67.352-14.99v-7.514c0-22.233-5.668-26.437-8.39-28.457z" fill="#F3E6C5"/><path fill="#F9F3E2" d="M0 383.417v34.134l45.01 12.367-11.252-46.5"/><path fill="#F3E6C5" d="M318.578 383.417H33.758v46.5l307.325-1.113"/><path fill="#CEBC96" d="M478.242 383.417l-22.506 34.134 22.506 34.134H512v-68.267"/><path fill="#E7D4A7" d="M318.577 383.415h159.665v68.267H318.577z"/><path fill="#F3E6C5" d="M0 417.55v34.134h33.758l11.253-17.067L33.76 417.55"/><g fill="#E7D4A7"><path d="M33.758 417.55v34.134h284.82l11.252-34.133M214.722 161.5c-1.44-4.433-6.204-6.86-10.634-5.417l-58.864 19.125c-4.432 1.44-6.86 6.2-5.418 10.634 1.44 4.434 6.204 6.86 10.634 5.418l58.864-19.125c4.432-1.44 6.858-6.202 5.418-10.634zM236.154 201.456c-2.74-3.77-8.016-4.606-11.788-1.868l-50.08 36.386c-3.77 2.74-4.607 8.018-1.868 11.788 2.74 3.77 8.016 4.606 11.788 1.868l50.08-36.386c3.77-2.74 4.608-8.017 1.868-11.788zM268.513 232.83c-3.772-2.74-9.05-1.903-11.788 1.868l-36.383 50.077c-2.74 3.77-1.904 9.048 1.867 11.788 3.77 2.74 9.048 1.904 11.787-1.867l36.383-50.077c2.74-3.772 1.904-9.05-1.867-11.79z"/></g><circle cx="75.956" cy="237.534" r="42.198" fill="#FFF"/></svg>